<svg width="310" height="79" viewBox="0 0 310 79" fill="none" xmlns="http://www.w3.org/2000/svg">
<g filter="url(#filter0_d_114_9)">
<path d="M108.483 62.64C105.027 62.64 101.784 61.9787 98.7548 60.656C95.7681 59.3333 93.1228 57.4987 90.8188 55.152C88.5574 52.7627 86.7868 50.032 85.5068 46.96C84.2268 43.8453 83.5868 40.5173 83.5868 36.976C83.5868 33.4773 84.2054 30.192 85.4428 27.12C86.7228 24.0053 88.4934 21.2747 90.7548 18.928C93.0588 16.5813 95.7041 14.7467 98.6908 13.424C101.72 12.0587 104.984 11.376 108.483 11.376C111.555 11.376 114.349 11.824 116.867 12.72C119.384 13.616 121.816 15.0453 124.163 17.008C124.547 17.3067 124.76 17.6693 124.803 18.096C124.888 18.48 124.845 18.864 124.675 19.248C124.504 19.5893 124.248 19.8453 123.907 20.016C123.821 20.3573 123.608 20.6133 123.267 20.784C122.925 20.9547 122.52 21.0187 122.051 20.976C121.624 20.9333 121.197 20.7413 120.771 20.4C119.107 18.9493 117.293 17.8827 115.331 17.2C113.368 16.4747 111.085 16.112 108.483 16.112C105.709 16.112 103.107 16.6667 100.675 17.776C98.2854 18.8853 96.1734 20.4 94.3388 22.32C92.5041 24.24 91.0534 26.4587 89.9868 28.976C88.9628 31.4933 88.4508 34.16 88.4508 36.976C88.4508 39.8773 88.9628 42.5867 89.9868 45.104C91.0534 47.6213 92.5041 49.84 94.3388 51.76C96.1734 53.68 98.2854 55.1947 100.675 56.304C103.107 57.3707 105.709 57.904 108.483 57.904C110.829 57.904 113.048 57.52 115.139 56.752C117.229 55.984 119.213 54.8747 121.091 53.424C121.603 52.9973 122.136 52.8267 122.691 52.912C123.288 52.9973 123.8 53.2533 124.227 53.68C124.653 54.1067 124.867 54.6613 124.867 55.344C124.867 55.6853 124.824 56.0053 124.739 56.304C124.653 56.56 124.461 56.8373 124.163 57.136C121.987 59.1413 119.555 60.5707 116.867 61.424C114.179 62.2347 111.384 62.64 108.483 62.64ZM124.867 55.344L120.003 54.32V41.456H110.019C109.293 41.456 108.696 41.2427 108.227 40.816C107.757 40.3893 107.523 39.856 107.523 39.216C107.523 38.576 107.757 38.064 108.227 37.68C108.696 37.2533 109.293 37.04 110.019 37.04H122.371C123.096 37.04 123.693 37.2747 124.163 37.744C124.632 38.1707 124.867 38.7467 124.867 39.472V55.344ZM146.405 62.32C143.12 62.32 140.176 61.552 137.573 60.016C134.971 58.4373 132.901 56.304 131.365 53.616C129.872 50.928 129.125 47.8987 129.125 44.528C129.125 41.1147 129.893 38.064 131.429 35.376C133.008 32.688 135.141 30.576 137.829 29.04C140.517 27.4613 143.547 26.672 146.917 26.672C150.288 26.672 153.296 27.4613 155.941 29.04C158.629 30.576 160.741 32.688 162.277 35.376C163.856 38.064 164.667 41.1147 164.709 44.528L162.725 46.064C162.725 49.136 162 51.9093 160.549 54.384C159.141 56.816 157.2 58.7573 154.725 60.208C152.293 61.616 149.52 62.32 146.405 62.32ZM146.917 57.84C149.392 57.84 151.589 57.264 153.509 56.112C155.472 54.96 157.008 53.3813 158.117 51.376C159.269 49.328 159.845 47.0453 159.845 44.528C159.845 41.968 159.269 39.6853 158.117 37.68C157.008 35.6747 155.472 34.096 153.509 32.944C151.589 31.7493 149.392 31.152 146.917 31.152C144.485 31.152 142.288 31.7493 140.325 32.944C138.363 34.096 136.805 35.6747 135.653 37.68C134.501 39.6853 133.925 41.968 133.925 44.528C133.925 47.0453 134.501 49.328 135.653 51.376C136.805 53.3813 138.363 54.96 140.325 56.112C142.288 57.264 144.485 57.84 146.917 57.84ZM162.213 62C161.488 62 160.891 61.7867 160.421 61.36C159.952 60.8907 159.717 60.2933 159.717 59.568V48.624L160.933 43.568L164.709 44.528V59.568C164.709 60.2933 164.475 60.8907 164.005 61.36C163.536 61.7867 162.939 62 162.213 62ZM187.03 62C184.768 62 182.742 61.4667 180.95 60.4C179.2 59.3333 177.814 57.8827 176.79 56.048C175.766 54.1707 175.254 52.0373 175.254 49.648V18.352C175.254 17.6267 175.467 17.0293 175.894 16.56C176.363 16.0907 176.96 15.856 177.686 15.856C178.411 15.856 179.008 16.0907 179.478 16.56C179.947 17.0293 180.182 17.6267 180.182 18.352V49.648C180.182 51.824 180.822 53.616 182.102 55.024C183.382 56.3893 185.024 57.072 187.03 57.072H188.758C189.44 57.072 189.995 57.3067 190.422 57.776C190.848 58.2453 191.062 58.8427 191.062 59.568C191.062 60.2933 190.806 60.8907 190.294 61.36C189.782 61.7867 189.142 62 188.374 62H187.03ZM171.094 32.56C170.454 32.56 169.92 32.368 169.494 31.984C169.067 31.5573 168.854 31.0453 168.854 30.448C168.854 29.808 169.067 29.296 169.494 28.912C169.92 28.4853 170.454 28.272 171.094 28.272H187.414C188.054 28.272 188.587 28.4853 189.014 28.912C189.44 29.296 189.654 29.808 189.654 30.448C189.654 31.0453 189.44 31.5573 189.014 31.984C188.587 32.368 188.054 32.56 187.414 32.56H171.094ZM200.62 47.728C199.852 47.728 199.233 47.4933 198.764 47.024C198.337 46.5547 198.124 45.9573 198.124 45.232V14.512C198.124 13.744 198.337 13.1467 198.764 12.72C199.233 12.2507 199.852 12.016 200.62 12.016C201.345 12.016 201.921 12.2507 202.348 12.72C202.817 13.1467 203.052 13.744 203.052 14.512V45.232C203.052 45.9573 202.817 46.5547 202.348 47.024C201.921 47.4933 201.345 47.728 200.62 47.728ZM228.14 62C227.414 62 226.817 61.7653 226.348 61.296C225.878 60.8267 225.644 60.2507 225.644 59.568V42.928C225.644 40.2827 225.132 38.1067 224.108 36.4C223.126 34.6933 221.761 33.4133 220.012 32.56C218.305 31.7067 216.364 31.28 214.188 31.28C212.097 31.28 210.198 31.6853 208.492 32.496C206.828 33.3067 205.505 34.416 204.524 35.824C203.542 37.232 203.052 38.832 203.052 40.624H199.532C199.617 37.936 200.342 35.5467 201.708 33.456C203.073 31.3227 204.886 29.6587 207.148 28.464C209.409 27.2267 211.926 26.608 214.7 26.608C217.729 26.608 220.438 27.248 222.828 28.528C225.217 29.7653 227.094 31.6 228.46 34.032C229.868 36.464 230.572 39.4293 230.572 42.928V59.568C230.572 60.2507 230.337 60.8267 229.868 61.296C229.398 61.7653 228.822 62 228.14 62ZM200.62 62C199.852 62 199.233 61.7867 198.764 61.36C198.337 60.8907 198.124 60.2933 198.124 59.568V29.488C198.124 28.72 198.337 28.1227 198.764 27.696C199.233 27.2267 199.852 26.992 200.62 26.992C201.345 26.992 201.921 27.2267 202.348 27.696C202.817 28.1227 203.052 28.72 203.052 29.488V59.568C203.052 60.2933 202.817 60.8907 202.348 61.36C201.921 61.7867 201.345 62 200.62 62ZM256.348 62.32C252.892 62.32 249.82 61.5733 247.132 60.08C244.487 58.544 242.396 56.432 240.86 53.744C239.367 51.056 238.62 47.984 238.62 44.528C238.62 41.0293 239.324 37.9573 240.732 35.312C242.183 32.624 244.167 30.512 246.684 28.976C249.202 27.44 252.103 26.672 255.388 26.672C258.631 26.672 261.447 27.4187 263.836 28.912C266.268 30.3627 268.146 32.3893 269.468 34.992C270.791 37.5947 271.452 40.56 271.452 43.888C271.452 44.5707 271.239 45.1253 270.812 45.552C270.386 45.936 269.831 46.128 269.148 46.128H241.948V42.032H269.66L266.908 44.016C266.951 41.5413 266.503 39.3227 265.564 37.36C264.626 35.3973 263.282 33.8613 261.532 32.752C259.826 31.6427 257.778 31.088 255.388 31.088C252.956 31.088 250.823 31.664 248.988 32.816C247.154 33.968 245.724 35.568 244.7 37.616C243.719 39.6213 243.228 41.9253 243.228 44.528C243.228 47.1307 243.783 49.4347 244.892 51.44C246.044 53.4453 247.602 55.024 249.564 56.176C251.527 57.328 253.788 57.904 256.348 57.904C257.884 57.904 259.42 57.648 260.956 57.136C262.535 56.5813 263.794 55.8987 264.732 55.088C265.202 54.704 265.735 54.512 266.332 54.512C266.93 54.4693 267.442 54.6187 267.868 54.96C268.423 55.472 268.7 56.0267 268.7 56.624C268.743 57.2213 268.508 57.7333 267.996 58.16C266.588 59.3547 264.796 60.3573 262.62 61.168C260.444 61.936 258.354 62.32 256.348 62.32ZM280.877 40.432C281.005 37.7867 281.687 35.4187 282.925 33.328C284.205 31.2373 285.847 29.5947 287.853 28.4C289.901 27.2053 292.162 26.608 294.637 26.608C296.599 26.608 298.114 26.8853 299.181 27.44C300.247 27.9947 300.653 28.8053 300.397 29.872C300.226 30.512 299.927 30.9387 299.501 31.152C299.117 31.3653 298.626 31.4507 298.029 31.408C297.474 31.3653 296.834 31.3227 296.109 31.28C293.719 31.0667 291.586 31.3227 289.709 32.048C287.874 32.7307 286.402 33.7973 285.293 35.248C284.226 36.6987 283.693 38.4267 283.693 40.432H280.877ZM281.261 62C280.493 62 279.895 61.7867 279.469 61.36C279.042 60.9333 278.829 60.336 278.829 59.568V29.424C278.829 28.656 279.042 28.0587 279.469 27.632C279.895 27.2053 280.493 26.992 281.261 26.992C282.029 26.992 282.626 27.2053 283.053 27.632C283.479 28.0587 283.693 28.656 283.693 29.424V59.568C283.693 60.336 283.479 60.9333 283.053 61.36C282.626 61.7867 282.029 62 281.261 62Z" fill="#093F68"/>
</g>
<path d="M38.5494 79C30.9292 79.01 23.4776 76.6998 17.138 72.3618C10.7984 68.0239 5.85611 61.8533 2.93698 54.6316C0.0178457 47.4099 -0.746851 39.4618 0.739784 31.7939C2.22642 24.126 5.89752 17.0832 11.2881 11.5573C16.6787 6.03143 23.5464 2.27106 31.0214 0.752401C38.4965 -0.76626 46.2427 0.0250986 53.279 3.02626C60.3154 6.02741 66.3255 11.1034 70.5482 17.6113C74.7709 24.1193 77.0162 31.7665 76.9999 39.5847C76.9694 50.0345 72.9075 60.0469 65.7023 67.4329C58.4971 74.8189 48.7347 78.9776 38.5494 79ZM38.5494 3.40456C31.5886 3.39452 24.7812 5.50225 18.9878 9.46122C13.1945 13.4202 8.67535 19.0526 6.00176 25.6465C3.32818 32.2403 2.62022 39.4994 3.96741 46.506C5.31459 53.5126 8.65641 59.9521 13.5704 65.0102C18.4843 70.0684 24.7497 73.5181 31.5745 74.9233C38.3992 76.3285 45.4769 75.626 51.9125 72.9046C58.3481 70.1832 63.8528 65.5652 67.7305 59.6344C71.6083 53.7035 73.685 46.7263 73.698 39.5847C73.6893 30.0186 69.9849 20.8462 63.3966 14.0772C56.8083 7.30823 47.8733 3.49474 38.5494 3.47233V3.40456Z" fill="#093F68"/>
<g filter="url(#filter1_d_114_9)">
<path d="M38.9976 34.1413C39.7004 33.6157 40.3139 32.9852 40.8155 32.2729C41.2668 31.6704 41.5143 30.9454 41.5235 30.199C41.5392 29.3875 41.2538 28.5978 40.7198 27.9756C40.3925 27.6398 39.9923 27.3798 39.5485 27.2149C39.1047 27.05 38.6287 26.9844 38.1555 27.0227C37.5582 27.0125 36.9666 27.139 36.4283 27.3921C35.89 27.6452 35.4198 28.0178 35.0555 28.4801C34.1728 29.6064 33.6952 30.9855 33.6968 32.4037L19 30.7595C19.2237 28.1343 20.0197 25.5862 21.3346 23.2859C22.5227 21.2531 24.1171 19.474 26.0231 18.0544C27.8997 16.6573 30.0291 15.6178 32.2998 14.9902C34.6254 14.3309 37.0352 13.9975 39.4568 14C41.7155 14.0052 43.9649 14.2813 46.1546 14.8221C48.2647 15.3287 50.2665 16.1952 52.0677 17.3818C53.8068 18.5547 55.2471 20.1016 56.2777 21.9033C57.4167 23.9599 57.9779 26.2741 57.9043 28.6109C57.9334 30.2716 57.6813 31.9256 57.158 33.5061C56.7182 34.8394 56.073 36.0994 55.2444 37.2429C54.4102 38.3337 53.4539 39.3302 52.393 40.2136C51.3286 41.1101 50.2172 41.9521 49.0633 42.736L42.1933 47.4257H58V60H20.8754V48.3038L38.9976 34.1413Z" fill="#093F68"/>
</g>
<defs>
<filter id="filter0_d_114_9" x="83.5869" y="11.376" width="226.194" height="60.2642" filterUnits="userSpaceOnUse" color-interpolation-filters="sRGB">
<feFlood flood-opacity="0" result="BackgroundImageFix"/>
<feColorMatrix in="SourceAlpha" type="matrix" values="0 0 0 0 0 0 0 0 0 0 0 0 0 0 0 0 0 0 127 0" result="hardAlpha"/>
<feOffset dx="5" dy="5"/>
<feGaussianBlur stdDeviation="2"/>
<feComposite in2="hardAlpha" operator="out"/>
<feColorMatrix type="matrix" values="0 0 0 0 0 0 0 0 0 0 0 0 0 0 0 0 0 0 0.25 0"/>
<feBlend mode="normal" in2="BackgroundImageFix" result="effect1_dropShadow_114_9"/>
<feBlend mode="normal" in="SourceGraphic" in2="effect1_dropShadow_114_9" result="shape"/>
</filter>
<filter id="filter1_d_114_9" x="15" y="14" width="47" height="54" filterUnits="userSpaceOnUse" color-interpolation-filters="sRGB">
<feFlood flood-opacity="0" result="BackgroundImageFix"/>
<feColorMatrix in="SourceAlpha" type="matrix" values="0 0 0 0 0 0 0 0 0 0 0 0 0 0 0 0 0 0 127 0" result="hardAlpha"/>
<feOffset dy="4"/>
<feGaussianBlur stdDeviation="2"/>
<feComposite in2="hardAlpha" operator="out"/>
<feColorMatrix type="matrix" values="0 0 0 0 0 0 0 0 0 0 0 0 0 0 0 0 0 0 0.25 0"/>
<feBlend mode="normal" in2="BackgroundImageFix" result="effect1_dropShadow_114_9"/>
<feBlend mode="normal" in="SourceGraphic" in2="effect1_dropShadow_114_9" result="shape"/>
</filter>
</defs>
</svg>
