<svg width="269" height="59" viewBox="0 0 269 59" fill="none" xmlns="http://www.w3.org/2000/svg">
<g filter="url(#filter0_d_64_16)">
<path d="M120.112 43.48C117.52 43.48 115.088 42.984 112.816 41.992C110.576 41 108.592 39.624 106.864 37.864C105.168 36.072 103.84 34.024 102.88 31.72C101.92 29.384 101.44 26.888 101.44 24.232C101.44 21.608 101.904 19.144 102.832 16.84C103.792 14.504 105.12 12.456 106.816 10.696C108.544 8.936 110.528 7.56 112.768 6.568C115.04 5.544 117.488 5.032 120.112 5.032C122.416 5.032 124.512 5.368 126.4 6.04C128.288 6.712 130.112 7.784 131.872 9.256C132.16 9.48 132.32 9.752 132.352 10.072C132.416 10.36 132.384 10.648 132.256 10.936C132.128 11.192 131.936 11.384 131.68 11.512C131.616 11.768 131.456 11.96 131.2 12.088C130.944 12.216 130.64 12.264 130.288 12.232C129.968 12.2 129.648 12.056 129.328 11.8C128.08 10.712 126.72 9.912 125.248 9.4C123.776 8.856 122.064 8.584 120.112 8.584C118.032 8.584 116.08 9 114.256 9.832C112.464 10.664 110.88 11.8 109.504 13.24C108.128 14.68 107.04 16.344 106.24 18.232C105.472 20.12 105.088 22.12 105.088 24.232C105.088 26.408 105.472 28.44 106.24 30.328C107.04 32.216 108.128 33.88 109.504 35.32C110.88 36.76 112.464 37.896 114.256 38.728C116.08 39.528 118.032 39.928 120.112 39.928C121.872 39.928 123.536 39.64 125.104 39.064C126.672 38.488 128.16 37.656 129.568 36.568C129.952 36.248 130.352 36.12 130.768 36.184C131.216 36.248 131.6 36.44 131.92 36.76C132.24 37.08 132.4 37.496 132.4 38.008C132.4 38.264 132.368 38.504 132.304 38.728C132.24 38.92 132.096 39.128 131.872 39.352C130.24 40.856 128.416 41.928 126.4 42.568C124.384 43.176 122.288 43.48 120.112 43.48ZM132.4 38.008L128.752 37.24V27.592H121.264C120.72 27.592 120.272 27.432 119.92 27.112C119.568 26.792 119.392 26.392 119.392 25.912C119.392 25.432 119.568 25.048 119.92 24.76C120.272 24.44 120.72 24.28 121.264 24.28H130.528C131.072 24.28 131.52 24.456 131.872 24.808C132.224 25.128 132.4 25.56 132.4 26.104V38.008ZM148.554 43.24C146.09 43.24 143.882 42.664 141.93 41.512C139.978 40.328 138.426 38.728 137.274 36.712C136.154 34.696 135.594 32.424 135.594 29.896C135.594 27.336 136.17 25.048 137.322 23.032C138.506 21.016 140.106 19.432 142.122 18.28C144.138 17.096 146.41 16.504 148.938 16.504C151.466 16.504 153.722 17.096 155.706 18.28C157.722 19.432 159.306 21.016 160.458 23.032C161.642 25.048 162.25 27.336 162.282 29.896L160.794 31.048C160.794 33.352 160.25 35.432 159.162 37.288C158.106 39.112 156.65 40.568 154.794 41.656C152.97 42.712 150.89 43.24 148.554 43.24ZM148.938 39.88C150.794 39.88 152.442 39.448 153.882 38.584C155.354 37.72 156.506 36.536 157.338 35.032C158.202 33.496 158.634 31.784 158.634 29.896C158.634 27.976 158.202 26.264 157.338 24.76C156.506 23.256 155.354 22.072 153.882 21.208C152.442 20.312 150.794 19.864 148.938 19.864C147.114 19.864 145.466 20.312 143.994 21.208C142.522 22.072 141.354 23.256 140.49 24.76C139.626 26.264 139.194 27.976 139.194 29.896C139.194 31.784 139.626 33.496 140.49 35.032C141.354 36.536 142.522 37.72 143.994 38.584C145.466 39.448 147.114 39.88 148.938 39.88ZM160.41 43C159.866 43 159.418 42.84 159.066 42.52C158.714 42.168 158.538 41.72 158.538 41.176V32.968L159.45 29.176L162.282 29.896V41.176C162.282 41.72 162.106 42.168 161.754 42.52C161.402 42.84 160.954 43 160.41 43ZM179.022 43C177.326 43 175.806 42.6 174.462 41.8C173.15 41 172.11 39.912 171.342 38.536C170.574 37.128 170.19 35.528 170.19 33.736V10.264C170.19 9.72 170.35 9.272 170.67 8.92C171.022 8.568 171.47 8.392 172.014 8.392C172.558 8.392 173.006 8.568 173.358 8.92C173.71 9.272 173.886 9.72 173.886 10.264V33.736C173.886 35.368 174.366 36.712 175.326 37.768C176.286 38.792 177.518 39.304 179.022 39.304H180.318C180.83 39.304 181.246 39.48 181.566 39.832C181.886 40.184 182.046 40.632 182.046 41.176C182.046 41.72 181.854 42.168 181.47 42.52C181.086 42.84 180.606 43 180.03 43H179.022ZM167.07 20.92C166.59 20.92 166.19 20.776 165.87 20.488C165.55 20.168 165.39 19.784 165.39 19.336C165.39 18.856 165.55 18.472 165.87 18.184C166.19 17.864 166.59 17.704 167.07 17.704H179.31C179.79 17.704 180.19 17.864 180.51 18.184C180.83 18.472 180.99 18.856 180.99 19.336C180.99 19.784 180.83 20.168 180.51 20.488C180.19 20.776 179.79 20.92 179.31 20.92H167.07ZM189.215 32.296C188.639 32.296 188.175 32.12 187.823 31.768C187.503 31.416 187.343 30.968 187.343 30.424V7.384C187.343 6.808 187.503 6.36 187.823 6.04C188.175 5.688 188.639 5.512 189.215 5.512C189.759 5.512 190.191 5.688 190.511 6.04C190.863 6.36 191.039 6.808 191.039 7.384V30.424C191.039 30.968 190.863 31.416 190.511 31.768C190.191 32.12 189.759 32.296 189.215 32.296ZM209.855 43C209.311 43 208.863 42.824 208.511 42.472C208.159 42.12 207.983 41.688 207.983 41.176V28.696C207.983 26.712 207.599 25.08 206.831 23.8C206.095 22.52 205.071 21.56 203.759 20.92C202.479 20.28 201.023 19.96 199.391 19.96C197.823 19.96 196.399 20.264 195.119 20.872C193.871 21.48 192.879 22.312 192.143 23.368C191.407 24.424 191.039 25.624 191.039 26.968H188.399C188.463 24.952 189.007 23.16 190.031 21.592C191.055 19.992 192.415 18.744 194.111 17.848C195.807 16.92 197.695 16.456 199.775 16.456C202.047 16.456 204.079 16.936 205.871 17.896C207.663 18.824 209.071 20.2 210.095 22.024C211.151 23.848 211.679 26.072 211.679 28.696V41.176C211.679 41.688 211.503 42.12 211.151 42.472C210.799 42.824 210.367 43 209.855 43ZM189.215 43C188.639 43 188.175 42.84 187.823 42.52C187.503 42.168 187.343 41.72 187.343 41.176V18.616C187.343 18.04 187.503 17.592 187.823 17.272C188.175 16.92 188.639 16.744 189.215 16.744C189.759 16.744 190.191 16.92 190.511 17.272C190.863 17.592 191.039 18.04 191.039 18.616V41.176C191.039 41.72 190.863 42.168 190.511 42.52C190.191 42.84 189.759 43 189.215 43ZM231.011 43.24C228.419 43.24 226.115 42.68 224.099 41.56C222.115 40.408 220.547 38.824 219.395 36.808C218.275 34.792 217.715 32.488 217.715 29.896C217.715 27.272 218.243 24.968 219.299 22.984C220.387 20.968 221.875 19.384 223.763 18.232C225.651 17.08 227.827 16.504 230.291 16.504C232.723 16.504 234.835 17.064 236.627 18.184C238.451 19.272 239.859 20.792 240.851 22.744C241.843 24.696 242.339 26.92 242.339 29.416C242.339 29.928 242.179 30.344 241.859 30.664C241.539 30.952 241.123 31.096 240.611 31.096H220.211V28.024H240.995L238.931 29.512C238.963 27.656 238.627 25.992 237.923 24.52C237.219 23.048 236.211 21.896 234.899 21.064C233.619 20.232 232.083 19.816 230.291 19.816C228.467 19.816 226.867 20.248 225.491 21.112C224.115 21.976 223.043 23.176 222.275 24.712C221.539 26.216 221.171 27.944 221.171 29.896C221.171 31.848 221.587 33.576 222.419 35.08C223.283 36.584 224.451 37.768 225.923 38.632C227.395 39.496 229.091 39.928 231.011 39.928C232.163 39.928 233.315 39.736 234.467 39.352C235.651 38.936 236.595 38.424 237.299 37.816C237.651 37.528 238.051 37.384 238.499 37.384C238.947 37.352 239.331 37.464 239.651 37.72C240.067 38.104 240.275 38.52 240.275 38.968C240.307 39.416 240.131 39.8 239.747 40.12C238.691 41.016 237.347 41.768 235.715 42.376C234.083 42.952 232.515 43.24 231.011 43.24ZM249.408 26.824C249.504 24.84 250.016 23.064 250.944 21.496C251.904 19.928 253.136 18.696 254.64 17.8C256.176 16.904 257.872 16.456 259.728 16.456C261.2 16.456 262.336 16.664 263.136 17.08C263.936 17.496 264.24 18.104 264.048 18.904C263.92 19.384 263.696 19.704 263.376 19.864C263.088 20.024 262.72 20.088 262.272 20.056C261.856 20.024 261.376 19.992 260.832 19.96C259.04 19.8 257.44 19.992 256.032 20.536C254.656 21.048 253.552 21.848 252.72 22.936C251.92 24.024 251.52 25.32 251.52 26.824H249.408ZM249.696 43C249.12 43 248.672 42.84 248.352 42.52C248.032 42.2 247.872 41.752 247.872 41.176V18.568C247.872 17.992 248.032 17.544 248.352 17.224C248.672 16.904 249.12 16.744 249.696 16.744C250.272 16.744 250.72 16.904 251.04 17.224C251.36 17.544 251.52 17.992 251.52 18.568V41.176C251.52 41.752 251.36 42.2 251.04 42.52C250.72 42.84 250.272 43 249.696 43Z" fill="black"/>
<path d="M15.1888 1.03028H78.0355C79.3699 1.02892 80.6915 1.29076 81.9246 1.80079C83.1577 2.31082 84.2781 3.05904 85.2216 4.00261C86.1652 4.94619 86.9134 6.06659 87.4235 7.29968C87.9335 8.53278 88.1953 9.85436 88.194 11.1888V13.1154L99.6918 17.4013L88.194 21.3988V39.6655C88.1953 41 87.9335 42.3215 87.4235 43.5546C86.9134 44.7877 86.1652 45.9081 85.2216 46.8517C84.2781 47.7953 83.1577 48.5435 81.9246 49.0535C80.6915 49.5636 79.3699 49.8254 78.0355 49.824H15.1888C12.4946 49.824 9.91072 48.7538 8.00563 46.8487C6.10055 44.9436 5.03027 42.3597 5.03027 39.6655V11.1888C5.03027 8.49458 6.10055 5.91072 8.00563 4.00563C9.91072 2.10054 12.4946 1.03028 15.1888 1.03028Z" fill="white"/>
<path d="M78.0252 50.8234H15.1785C12.219 50.818 9.38197 49.6413 7.28737 47.5506C5.19277 45.4598 4.01089 42.625 4 39.6655V11.1888C4.00273 8.22216 5.18242 5.37784 7.28013 3.28013C9.37784 1.18242 12.2222 0.00272792 15.1888 0H78.0355C81.0021 0.00272792 83.8464 1.18242 85.9441 3.28013C88.0418 5.37784 89.2215 8.22216 89.2243 11.1888V12.3942L100.052 16.4329C100.251 16.5051 100.423 16.6367 100.545 16.81C100.666 16.9833 100.731 17.1897 100.731 17.4013C100.731 17.6129 100.666 17.8194 100.545 17.9926C100.423 18.1659 100.251 18.2976 100.052 18.3698L89.214 22.1509V39.6655C89.2031 42.6268 88.0198 45.4632 85.9229 47.5542C83.8261 49.6453 80.9865 50.8207 78.0252 50.8234ZM15.1785 2.06055C12.7584 2.06327 10.4381 3.02587 8.72685 4.73715C7.01557 6.44843 6.05298 8.76865 6.05025 11.1888V39.6655C6.05569 42.0848 7.01916 44.4035 8.72986 46.1142C10.4406 47.8248 12.7592 48.7883 15.1785 48.7938H78.0252C80.4453 48.791 82.7655 47.8284 84.4768 46.1172C86.1881 44.4059 87.1507 42.0857 87.1534 39.6655V21.4297C87.155 21.2155 87.2233 21.0071 87.3489 20.8335C87.4745 20.6599 87.651 20.5298 87.854 20.4612L96.6422 17.3704L87.8334 14.0838C87.6359 14.0125 87.465 13.8824 87.3434 13.7112C87.2219 13.54 87.1556 13.3357 87.1534 13.1257V11.1991C87.1534 8.77812 86.1917 6.45632 84.4798 4.74445C82.7679 3.03257 80.4461 2.07085 78.0252 2.07085L15.1785 2.06055Z" fill="#093F68"/>
<path d="M46.3572 22.4492C46.8618 22.0722 47.3023 21.6198 47.6624 21.1089C47.9864 20.6766 48.1641 20.1565 48.1707 19.621C48.182 19.0388 47.9771 18.4723 47.5937 18.026C47.3587 17.7851 47.0714 17.5986 46.7528 17.4803C46.4342 17.362 46.0924 17.3149 45.7527 17.3424C45.3238 17.3351 44.8991 17.4258 44.5126 17.6074C44.1261 17.7889 43.7886 18.0562 43.527 18.3879C42.8933 19.1959 42.5504 20.1853 42.5515 21.2027L32 20.0232C32.1606 18.1399 32.7321 16.3118 33.6762 14.6617C34.5291 13.2033 35.6738 11.927 37.0422 10.9086C38.3895 9.90632 39.9183 9.16058 41.5486 8.71041C43.2182 8.23738 44.9483 7.9982 46.687 8.00001C48.3085 8.00373 49.9235 8.2018 51.4956 8.58978C53.0105 8.95318 54.4477 9.57483 55.7409 10.4261C56.9895 11.2675 58.0236 12.3772 58.7635 13.6698C59.5812 15.1451 59.9841 16.8053 59.9313 18.4817C59.9522 19.6731 59.7712 20.8597 59.3955 21.9935C59.0798 22.95 58.6165 23.8539 58.0216 24.6743C57.4227 25.4568 56.7361 26.1717 55.9745 26.8054C55.2103 27.4486 54.4123 28.0526 53.5839 28.6149L48.6516 31.9793H60V41H33.3464V32.6093L46.3572 22.4492Z" fill="#093F68"/>
</g>
<defs>
<filter id="filter0_d_64_16" x="0" y="0" width="270" height="62" filterUnits="userSpaceOnUse" color-interpolation-filters="sRGB">
<feFlood flood-opacity="0" result="BackgroundImageFix"/>
<feColorMatrix in="SourceAlpha" type="matrix" values="0 0 0 0 0 0 0 0 0 0 0 0 0 0 0 0 0 0 127 0" result="hardAlpha"/>
<feOffset dy="4"/>
<feGaussianBlur stdDeviation="2"/>
<feComposite in2="hardAlpha" operator="out"/>
<feColorMatrix type="matrix" values="0 0 0 0 0 0 0 0 0 0 0 0 0 0 0 0 0 0 0.25 0"/>
<feBlend mode="normal" in2="BackgroundImageFix" result="effect1_dropShadow_64_16"/>
<feBlend mode="normal" in="SourceGraphic" in2="effect1_dropShadow_64_16" result="shape"/>
</filter>
</defs>
</svg>
