<svg width="271" height="59" viewBox="0 0 271 59" fill="none" xmlns="http://www.w3.org/2000/svg">
<g filter="url(#filter0_d_114_10)">
<path d="M118.916 43.48C116.324 43.48 113.892 43 111.62 42.04C109.38 41.048 107.412 39.688 105.716 37.96C104.052 36.2 102.74 34.152 101.78 31.816C100.852 29.48 100.388 26.952 100.388 24.232C100.388 21.544 100.852 19.048 101.78 16.744C102.74 14.408 104.052 12.376 105.716 10.648C107.412 8.888 109.38 7.512 111.62 6.52C113.86 5.528 116.292 5.032 118.916 5.032C121.38 5.032 123.492 5.352 125.252 5.992C127.044 6.632 128.836 7.688 130.628 9.16C130.884 9.352 131.076 9.56 131.204 9.784C131.364 9.976 131.46 10.184 131.492 10.408C131.556 10.6 131.588 10.84 131.588 11.128C131.588 11.736 131.364 12.248 130.916 12.664C130.5 13.08 129.972 13.304 129.332 13.336C128.724 13.368 128.148 13.16 127.604 12.712C126.42 11.688 125.188 10.904 123.908 10.36C122.66 9.816 120.996 9.544 118.916 9.544C117.028 9.544 115.252 9.928 113.588 10.696C111.924 11.464 110.452 12.52 109.172 13.864C107.924 15.208 106.948 16.776 106.244 18.568C105.54 20.328 105.188 22.216 105.188 24.232C105.188 26.28 105.54 28.2 106.244 29.992C106.948 31.752 107.924 33.304 109.172 34.648C110.452 35.992 111.924 37.048 113.588 37.816C115.252 38.552 117.028 38.92 118.916 38.92C120.548 38.92 122.084 38.648 123.524 38.104C124.996 37.528 126.404 36.744 127.748 35.752C128.324 35.336 128.884 35.16 129.428 35.224C130.004 35.256 130.484 35.48 130.868 35.896C131.252 36.28 131.444 36.824 131.444 37.528C131.444 37.848 131.38 38.168 131.252 38.488C131.156 38.776 130.964 39.048 130.676 39.304C128.98 40.712 127.14 41.768 125.156 42.472C123.172 43.144 121.092 43.48 118.916 43.48ZM131.444 37.528L126.644 36.568V27.976H120.02C119.316 27.976 118.724 27.768 118.244 27.352C117.764 26.936 117.524 26.408 117.524 25.768C117.524 25.128 117.764 24.6 118.244 24.184C118.724 23.768 119.316 23.56 120.02 23.56H128.996C129.732 23.56 130.324 23.8 130.772 24.28C131.22 24.728 131.444 25.32 131.444 26.056V37.528ZM147.25 43.192C144.914 43.192 142.818 42.616 140.962 41.464C139.106 40.28 137.634 38.696 136.546 36.712C135.49 34.696 134.962 32.424 134.962 29.896C134.962 27.368 135.538 25.096 136.69 23.08C137.874 21.064 139.458 19.48 141.442 18.328C143.458 17.144 145.714 16.552 148.21 16.552C150.706 16.552 152.946 17.144 154.93 18.328C156.914 19.48 158.482 21.064 159.634 23.08C160.818 25.096 161.41 27.368 161.41 29.896H159.538C159.538 32.424 158.994 34.696 157.906 36.712C156.85 38.696 155.394 40.28 153.538 41.464C151.682 42.616 149.586 43.192 147.25 43.192ZM148.21 38.872C149.842 38.872 151.298 38.488 152.578 37.72C153.858 36.92 154.866 35.848 155.602 34.504C156.338 33.128 156.706 31.592 156.706 29.896C156.706 28.168 156.338 26.632 155.602 25.288C154.866 23.912 153.858 22.84 152.578 22.072C151.298 21.272 149.842 20.872 148.21 20.872C146.61 20.872 145.154 21.272 143.842 22.072C142.562 22.84 141.538 23.912 140.77 25.288C140.034 26.632 139.666 28.168 139.666 29.896C139.666 31.592 140.034 33.128 140.77 34.504C141.538 35.848 142.562 36.92 143.842 37.72C145.154 38.488 146.61 38.872 148.21 38.872ZM158.962 43.048C158.258 43.048 157.666 42.824 157.186 42.376C156.738 41.896 156.514 41.304 156.514 40.6V33.256L157.426 28.168L161.41 29.896V40.6C161.41 41.304 161.17 41.896 160.69 42.376C160.242 42.824 159.666 43.048 158.962 43.048ZM177.529 43C175.929 43 174.489 42.6 173.209 41.8C171.929 40.968 170.921 39.848 170.185 38.44C169.449 37.032 169.081 35.448 169.081 33.688V10.792C169.081 10.088 169.305 9.512 169.753 9.064C170.201 8.616 170.777 8.392 171.481 8.392C172.185 8.392 172.761 8.616 173.209 9.064C173.657 9.512 173.881 10.088 173.881 10.792V33.688C173.881 34.968 174.233 36.04 174.937 36.904C175.641 37.768 176.505 38.2 177.529 38.2H179.161C179.737 38.2 180.217 38.424 180.601 38.872C181.017 39.32 181.225 39.896 181.225 40.6C181.225 41.304 180.953 41.88 180.409 42.328C179.897 42.776 179.225 43 178.393 43H177.529ZM166.873 21.832C166.201 21.832 165.657 21.64 165.241 21.256C164.825 20.872 164.617 20.392 164.617 19.816C164.617 19.176 164.825 18.664 165.241 18.28C165.657 17.896 166.201 17.704 166.873 17.704H177.961C178.633 17.704 179.177 17.896 179.593 18.28C180.009 18.664 180.217 19.176 180.217 19.816C180.217 20.392 180.009 20.872 179.593 21.256C179.177 21.64 178.633 21.832 177.961 21.832H166.873ZM188.97 33.448C188.266 33.448 187.674 33.224 187.194 32.776C186.746 32.296 186.522 31.704 186.522 31V7.96C186.522 7.224 186.746 6.632 187.194 6.184C187.674 5.736 188.266 5.512 188.97 5.512C189.706 5.512 190.298 5.736 190.746 6.184C191.194 6.632 191.418 7.224 191.418 7.96V31C191.418 31.704 191.194 32.296 190.746 32.776C190.298 33.224 189.706 33.448 188.97 33.448ZM208.699 43.048C207.995 43.048 207.403 42.824 206.923 42.376C206.475 41.896 206.251 41.304 206.251 40.6V28.792C206.251 26.968 205.915 25.48 205.243 24.328C204.571 23.176 203.659 22.328 202.506 21.784C201.386 21.208 200.09 20.92 198.618 20.92C197.274 20.92 196.058 21.192 194.97 21.736C193.882 22.28 193.018 23.016 192.378 23.944C191.738 24.84 191.418 25.88 191.418 27.064H188.394C188.394 25.048 188.874 23.256 189.834 21.688C190.826 20.088 192.171 18.824 193.867 17.896C195.562 16.968 197.466 16.504 199.579 16.504C201.787 16.504 203.755 16.984 205.483 17.944C207.243 18.872 208.619 20.248 209.611 22.072C210.635 23.896 211.147 26.136 211.147 28.792V40.6C211.147 41.304 210.907 41.896 210.426 42.376C209.978 42.824 209.403 43.048 208.699 43.048ZM188.97 43.048C188.266 43.048 187.674 42.824 187.194 42.376C186.746 41.896 186.522 41.304 186.522 40.6V19.192C186.522 18.456 186.746 17.864 187.194 17.416C187.674 16.968 188.266 16.744 188.97 16.744C189.706 16.744 190.298 16.968 190.746 17.416C191.194 17.864 191.418 18.456 191.418 19.192V40.6C191.418 41.304 191.194 41.896 190.746 42.376C190.298 42.824 189.706 43.048 188.97 43.048ZM230.904 43.192C228.248 43.192 225.88 42.632 223.8 41.512C221.752 40.36 220.136 38.792 218.952 36.808C217.8 34.792 217.224 32.488 217.224 29.896C217.224 27.272 217.768 24.968 218.856 22.984C219.976 20.968 221.512 19.4 223.464 18.28C225.416 17.128 227.656 16.552 230.184 16.552C232.68 16.552 234.824 17.112 236.616 18.232C238.408 19.32 239.768 20.84 240.696 22.792C241.656 24.712 242.136 26.936 242.136 29.464C242.136 30.072 241.928 30.584 241.512 31C241.096 31.384 240.568 31.576 239.928 31.576H220.584V27.736H239.784L237.816 29.08C237.784 27.48 237.464 26.056 236.856 24.808C236.248 23.528 235.384 22.52 234.264 21.784C233.144 21.048 231.784 20.68 230.184 20.68C228.36 20.68 226.792 21.08 225.48 21.88C224.2 22.68 223.224 23.784 222.552 25.192C221.88 26.568 221.544 28.136 221.544 29.896C221.544 31.656 221.944 33.224 222.744 34.6C223.544 35.976 224.648 37.064 226.056 37.864C227.464 38.664 229.08 39.064 230.904 39.064C231.896 39.064 232.904 38.888 233.928 38.536C234.984 38.152 235.832 37.72 236.472 37.24C236.952 36.888 237.464 36.712 238.008 36.712C238.584 36.68 239.08 36.84 239.496 37.192C240.04 37.672 240.328 38.2 240.36 38.776C240.392 39.352 240.136 39.848 239.592 40.264C238.504 41.128 237.144 41.832 235.512 42.376C233.912 42.92 232.376 43.192 230.904 43.192ZM250.013 26.584C250.013 24.664 250.477 22.952 251.405 21.448C252.365 19.912 253.645 18.696 255.245 17.8C256.845 16.904 258.605 16.456 260.525 16.456C262.445 16.456 263.869 16.776 264.797 17.416C265.757 18.024 266.125 18.76 265.901 19.624C265.805 20.072 265.613 20.424 265.325 20.68C265.069 20.904 264.765 21.048 264.413 21.112C264.061 21.176 263.677 21.16 263.261 21.064C261.213 20.648 259.373 20.616 257.741 20.968C256.109 21.32 254.813 21.976 253.853 22.936C252.925 23.896 252.461 25.112 252.461 26.584H250.013ZM250.061 43C249.293 43 248.701 42.808 248.285 42.424C247.869 42.008 247.661 41.4 247.661 40.6V19.144C247.661 18.376 247.869 17.784 248.285 17.368C248.701 16.952 249.293 16.744 250.061 16.744C250.861 16.744 251.453 16.952 251.837 17.368C252.253 17.752 252.461 18.344 252.461 19.144V40.6C252.461 41.368 252.253 41.96 251.837 42.376C251.453 42.792 250.861 43 250.061 43Z" fill="#093F68"/>
</g>
<g filter="url(#filter1_d_114_10)">
<path d="M15.1888 1.03028H78.0355C79.3699 1.02892 80.6915 1.29076 81.9246 1.80079C83.1577 2.31082 84.2781 3.05904 85.2217 4.00261C86.1652 4.94619 86.9134 6.06658 87.4235 7.29968C87.9335 8.53278 88.1953 9.85436 88.194 11.1888V13.1154L99.6918 17.4013L88.194 21.3988V39.6655C88.1953 41 87.9335 42.3215 87.4235 43.5546C86.9134 44.7877 86.1652 45.9081 85.2217 46.8517C84.2781 47.7953 83.1577 48.5435 81.9246 49.0535C80.6915 49.5636 79.3699 49.8254 78.0355 49.824H15.1888C12.4946 49.824 9.91072 48.7538 8.00563 46.8487C6.10055 44.9436 5.03027 42.3597 5.03027 39.6655V11.1888C5.03027 8.49458 6.10055 5.91072 8.00563 4.00563C9.91072 2.10054 12.4946 1.03028 15.1888 1.03028Z" fill="white"/>
<path d="M78.0252 50.8234H15.1785C12.219 50.818 9.38197 49.6413 7.28737 47.5506C5.19277 45.4598 4.01089 42.625 4 39.6655V11.1888C4.00273 8.22216 5.18242 5.37784 7.28013 3.28013C9.37784 1.18242 12.2222 0.00272792 15.1888 0H78.0355C81.0021 0.00272792 83.8464 1.18242 85.9441 3.28013C88.0418 5.37784 89.2215 8.22216 89.2243 11.1888V12.3942L100.052 16.4329C100.251 16.5051 100.423 16.6367 100.545 16.81C100.666 16.9833 100.731 17.1897 100.731 17.4013C100.731 17.6129 100.666 17.8194 100.545 17.9926C100.423 18.1659 100.251 18.2976 100.052 18.3698L89.214 22.1509V39.6655C89.2031 42.6268 88.0198 45.4632 85.9229 47.5542C83.8261 49.6453 80.9865 50.8207 78.0252 50.8234ZM15.1785 2.06055C12.7584 2.06327 10.4381 3.02587 8.72685 4.73715C7.01557 6.44843 6.05298 8.76866 6.05025 11.1888V39.6655C6.05569 42.0848 7.01916 44.4035 8.72986 46.1142C10.4406 47.8248 12.7592 48.7883 15.1785 48.7938H78.0252C80.4453 48.791 82.7655 47.8284 84.4768 46.1172C86.1881 44.4059 87.1507 42.0857 87.1534 39.6655V21.4297C87.155 21.2155 87.2233 21.0071 87.3489 20.8335C87.4745 20.6599 87.651 20.5298 87.854 20.4612L96.6422 17.3704L87.8334 14.0838C87.6359 14.0125 87.465 13.8824 87.3434 13.7112C87.2219 13.54 87.1556 13.3357 87.1534 13.1257V11.1991C87.1534 8.77812 86.1917 6.45632 84.4798 4.74445C82.7679 3.03257 80.4461 2.07085 78.0252 2.07085L15.1785 2.06055Z" fill="#093F68"/>
<path d="M46.3572 22.4492C46.8618 22.0722 47.3023 21.6198 47.6624 21.1089C47.9864 20.6766 48.1641 20.1565 48.1707 19.621C48.182 19.0388 47.9771 18.4723 47.5937 18.026C47.3587 17.7851 47.0714 17.5986 46.7528 17.4803C46.4342 17.362 46.0924 17.3149 45.7527 17.3424C45.3238 17.3351 44.8991 17.4258 44.5126 17.6074C44.1261 17.7889 43.7886 18.0562 43.527 18.3879C42.8933 19.1959 42.5504 20.1853 42.5515 21.2027L32 20.0232C32.1606 18.1399 32.7321 16.3118 33.6762 14.6617C34.5291 13.2033 35.6738 11.927 37.0422 10.9086C38.3895 9.90632 39.9183 9.16058 41.5486 8.71041C43.2182 8.23738 44.9483 7.9982 46.687 8.00001C48.3085 8.00373 49.9235 8.2018 51.4956 8.58978C53.0105 8.95318 54.4477 9.57483 55.7409 10.4261C56.9895 11.2675 58.0236 12.3772 58.7635 13.6698C59.5812 15.1451 59.9841 16.8053 59.9313 18.4817C59.9522 19.6731 59.7712 20.8597 59.3955 21.9935C59.0798 22.95 58.6165 23.8539 58.0216 24.6743C57.4227 25.4568 56.7361 26.1717 55.9745 26.8054C55.2103 27.4486 54.4123 28.0526 53.5839 28.6149L48.6516 31.9793H60V41H33.3464V32.6093L46.3572 22.4492Z" fill="#093F68"/>
</g>
<defs>
<filter id="filter0_d_114_10" x="96.3877" y="5.03223" width="173.849" height="46.4478" filterUnits="userSpaceOnUse" color-interpolation-filters="sRGB">
<feFlood flood-opacity="0" result="BackgroundImageFix"/>
<feColorMatrix in="SourceAlpha" type="matrix" values="0 0 0 0 0 0 0 0 0 0 0 0 0 0 0 0 0 0 127 0" result="hardAlpha"/>
<feOffset dy="4"/>
<feGaussianBlur stdDeviation="2"/>
<feComposite in2="hardAlpha" operator="out"/>
<feColorMatrix type="matrix" values="0 0 0 0 1 0 0 0 0 1 0 0 0 0 1 0 0 0 1 0"/>
<feBlend mode="normal" in2="BackgroundImageFix" result="effect1_dropShadow_114_10"/>
<feBlend mode="normal" in="SourceGraphic" in2="effect1_dropShadow_114_10" result="shape"/>
</filter>
<filter id="filter1_d_114_10" x="0" y="0" width="104.731" height="58.8232" filterUnits="userSpaceOnUse" color-interpolation-filters="sRGB">
<feFlood flood-opacity="0" result="BackgroundImageFix"/>
<feColorMatrix in="SourceAlpha" type="matrix" values="0 0 0 0 0 0 0 0 0 0 0 0 0 0 0 0 0 0 127 0" result="hardAlpha"/>
<feOffset dy="4"/>
<feGaussianBlur stdDeviation="2"/>
<feComposite in2="hardAlpha" operator="out"/>
<feColorMatrix type="matrix" values="0 0 0 0 0 0 0 0 0 0 0 0 0 0 0 0 0 0 0.25 0"/>
<feBlend mode="normal" in2="BackgroundImageFix" result="effect1_dropShadow_114_10"/>
<feBlend mode="normal" in="SourceGraphic" in2="effect1_dropShadow_114_10" result="shape"/>
</filter>
</defs>
</svg>
