<svg width="77" height="79" viewBox="0 0 77 79" fill="none" xmlns="http://www.w3.org/2000/svg">
<path d="M38.5494 79C30.9292 79.01 23.4776 76.6998 17.138 72.3618C10.7984 68.0239 5.85611 61.8533 2.93698 54.6316C0.0178457 47.4099 -0.746851 39.4618 0.739784 31.7939C2.22642 24.126 5.89752 17.0832 11.2881 11.5573C16.6787 6.03143 23.5464 2.27106 31.0214 0.752401C38.4965 -0.76626 46.2427 0.0250986 53.279 3.02626C60.3154 6.02741 66.3255 11.1034 70.5482 17.6113C74.7709 24.1193 77.0162 31.7665 76.9999 39.5847C76.9694 50.0345 72.9075 60.0469 65.7023 67.4329C58.4971 74.8189 48.7347 78.9776 38.5494 79ZM38.5494 3.40456C31.5886 3.39452 24.7812 5.50225 18.9878 9.46122C13.1945 13.4202 8.67535 19.0526 6.00176 25.6465C3.32818 32.2403 2.62022 39.4994 3.96741 46.506C5.31459 53.5126 8.65641 59.9521 13.5704 65.0102C18.4843 70.0684 24.7497 73.5181 31.5745 74.9233C38.3992 76.3285 45.4769 75.626 51.9125 72.9046C58.3481 70.1832 63.8528 65.5652 67.7305 59.6344C71.6083 53.7035 73.685 46.7263 73.698 39.5847C73.6893 30.0186 69.9849 20.8462 63.3966 14.0772C56.8083 7.30823 47.8733 3.49474 38.5494 3.47233V3.40456Z" fill="#093F68"/>
<g filter="url(#filter0_d_110_9)">
<path d="M38.9976 34.1413C39.7004 33.6157 40.3139 32.9852 40.8155 32.2729C41.2668 31.6704 41.5143 30.9454 41.5235 30.199C41.5392 29.3875 41.2538 28.5978 40.7198 27.9756C40.3925 27.6398 39.9923 27.3798 39.5485 27.2149C39.1047 27.05 38.6287 26.9844 38.1555 27.0227C37.5582 27.0125 36.9666 27.139 36.4283 27.3921C35.89 27.6452 35.4198 28.0178 35.0555 28.4801C34.1728 29.6064 33.6952 30.9855 33.6968 32.4037L19 30.7595C19.2237 28.1343 20.0197 25.5862 21.3346 23.2859C22.5227 21.2531 24.1171 19.474 26.0231 18.0544C27.8997 16.6573 30.0291 15.6178 32.2998 14.9902C34.6254 14.3309 37.0352 13.9975 39.4568 14C41.7155 14.0052 43.9649 14.2813 46.1546 14.8221C48.2647 15.3287 50.2665 16.1952 52.0677 17.3818C53.8068 18.5547 55.2471 20.1016 56.2777 21.9033C57.4167 23.9599 57.9779 26.2741 57.9043 28.6109C57.9334 30.2716 57.6813 31.9256 57.158 33.5061C56.7182 34.8394 56.073 36.0994 55.2444 37.2429C54.4102 38.3337 53.4539 39.3302 52.393 40.2136C51.3286 41.1101 50.2172 41.9521 49.0633 42.736L42.1933 47.4257H58V60H20.8754V48.3038L38.9976 34.1413Z" fill="#093F68"/>
</g>
<defs>
<filter id="filter0_d_110_9" x="15" y="14" width="47" height="54" filterUnits="userSpaceOnUse" color-interpolation-filters="sRGB">
<feFlood flood-opacity="0" result="BackgroundImageFix"/>
<feColorMatrix in="SourceAlpha" type="matrix" values="0 0 0 0 0 0 0 0 0 0 0 0 0 0 0 0 0 0 127 0" result="hardAlpha"/>
<feOffset dy="4"/>
<feGaussianBlur stdDeviation="2"/>
<feComposite in2="hardAlpha" operator="out"/>
<feColorMatrix type="matrix" values="0 0 0 0 0 0 0 0 0 0 0 0 0 0 0 0 0 0 0.25 0"/>
<feBlend mode="normal" in2="BackgroundImageFix" result="effect1_dropShadow_110_9"/>
<feBlend mode="normal" in="SourceGraphic" in2="effect1_dropShadow_110_9" result="shape"/>
</filter>
</defs>
</svg>
